<svg baseProfile="tiny" width="19.115em" height="18em" viewBox="0 0 6071 5599" preserveAspectRatio="xMidYMid" fill-rule="evenodd" clip-path="url(#prefix__a)" stroke-width="28.222" stroke-linejoin="round" xmlns="http://www.w3.org/2000/svg"><defs class="prefix__ClipPathGroup"><clipPath id="prefix__a" clipPathUnits="userSpaceOnUse"><path d="M0 0h6071v5599H0z"/></clipPath></defs><g class="prefix__SlideGroup"><g class="prefix__Slide" clip-path="url(#prefix__a)"><g class="prefix__Page"><g class="prefix__Group"><g class="prefix__com_sun_star_drawing_PolyPolygonShape"><path fill="#87CEEB" d="M1270 4324l1764-3055 1764 3055H1270z"/><path fill="none" stroke="#87CEEB" stroke-width="2540" d="M1270 4324l1764-3055 1764 3055H1270z"/></g><path fill="none" stroke="red" stroke-width="71" d="M5868 3708h0c114 197 166 391 166 618s-52 421-165 617c-114 197-256 339-453 453-196 113-390 165-617 165M1271 5561h0c-227 0-421-52-617-165-197-114-339-256-453-452-113-197-165-391-165-618s52-421 165-617M1967 655h0c113-197 255-339 452-452 196-114 390-166 617-166s421 52 618 165c196 114 338 256 452 453"/></g></g></g></g></svg>